# xmcd CD database file
#
# Track frame offsets:
#	185
#	14182
#	28170
#	43067
#	57117
#	67165
#	86852
#	99415
#	112385
#	125910
#
# Disc length: 1877 seconds
#
# Revision: 0
# Processed by: cddbd v1.5PL3 Copyright (c) Steve Scherf et al.
# Submitted via: Feurio! 1.67 - http://www.feurio.com
#
DISCID=9d07530a
DTITLE=Gene Watson - Back In The Fire
DYEAR=1989
DGENRE=Country
TTITLE0=??? - Don't Waste It On The Blues
TTITLE1=??? - Dreams Of A Dreamer
TTITLE2=??? - Somewhere Over You
TTITLE3=??? - Back In The Fire
TTITLE4=??? - Ain't No Fun To Be Alone In San Antone
TTITLE5=??? - The Great Divide
TTITLE6=??? - Just How Little I Know
TTITLE7=??? - She Found The Key
TTITLE8=??? - The Jukebox Played Along
TTITLE9=??? - When A Fool Learns
EXTD=Kommentar: Warner Bros Records Inc. 1989\r\n
EXTT0=
EXTT1=
EXTT2=
EXTT3=
EXTT4=
EXTT5=
EXTT6=
EXTT7=
EXTT8=
EXTT9=
PLAYORDER=
